# xmcd CD database file
#
# Track frame offsets:
#	150
#	19547
#	37770
#	53222
#	71950
#	87247
#
# Disc length: 1526 seconds
#
# Revision: 0
# Processed by: cddbd v1.5PL3 Copyright (c) Steve Scherf et al.
# Submitted via: CDex 1.51
#
DISCID=4405f406
DTITLE=THE BAND HAS NO NAME - THE BAND HAS NO NAME
DYEAR=1990
DGENRE=Rock
TTITLE0=Something Wild
TTITLE1=Rain Song
TTITLE2=Mistake
TTITLE3=Blue Boy
TTITLE4=All Through The Night
TTITLE5=Automatic Generation
EXTD=YEAR: 1990
EXTT0=
EXTT1=
EXTT2=
EXTT3=
EXTT4=
EXTT5=
PLAYORDER=
